<?xml version="1.0" encoding="utf-8" standalone="no"?>
<!DOCTYPE svg PUBLIC "-//W3C//DTD SVG 1.1//EN"
  "http://www.w3.org/Graphics/SVG/1.1/DTD/svg11.dtd">
<svg xmlns:xlink="http://www.w3.org/1999/xlink" width="615.551pt" height="363.57875pt" viewBox="0 0 615.551 363.57875" xmlns="http://www.w3.org/2000/svg" version="1.1">
 <metadata>
  <rdf:RDF xmlns:dc="http://purl.org/dc/elements/1.1/" xmlns:cc="http://creativecommons.org/ns#" xmlns:rdf="http://www.w3.org/1999/02/22-rdf-syntax-ns#">
   <cc:Work>
    <dc:type rdf:resource="http://purl.org/dc/dcmitype/StillImage"/>
    <dc:date>2026-06-05T00:06:08.382956</dc:date>
    <dc:format>image/svg+xml</dc:format>
    <dc:creator>
     <cc:Agent>
      <dc:title>Matplotlib v3.10.0, https://matplotlib.org/</dc:title>
     </cc:Agent>
    </dc:creator>
   </cc:Work>
  </rdf:RDF>
 </metadata>
 <defs>
  <style type="text/css">*{stroke-linejoin: round; stroke-linecap: butt}</style>
 </defs>
 <g id="figure_1">
  <g id="patch_1">
   <path d="M 0 363.57875 
L 615.551 363.57875 
L 615.551 0 
L 0 0 
z
" style="fill: #ffffff"/>
  </g>
  <g id="axes_1">
   <g id="patch_2">
    <path d="M 36.63625 330.6525 
L 510.93625 330.6525 
L 510.93625 20.1885 
L 36.63625 20.1885 
z
" style="fill: #ffffff"/>
   </g>
   <g id="PathCollection_1">
    <defs>
     <path id="mbb2ef8543c" d="M 0 4.873397 
C 1.29244 4.873397 2.532119 4.359905 3.446012 3.446012 
C 4.359905 2.532119 4.873397 1.29244 4.873397 0 
C 4.873397 -1.29244 4.359905 -2.532119 3.446012 -3.446012 
C 2.532119 -4.359905 1.29244 -4.873397 0 -4.873397 
C -1.29244 -4.873397 -2.532119 -4.359905 -3.446012 -3.446012 
C -4.359905 -2.532119 -4.873397 -1.29244 -4.873397 0 
C -4.873397 1.29244 -4.359905 2.532119 -3.446012 3.446012 
C -2.532119 4.359905 -1.29244 4.873397 0 4.873397 
z
" style="stroke: #ffffff; stroke-width: 1.1"/>
    </defs>
    <g clip-path="url(#p69c48d797d)">
     <use xlink:href="#mbb2ef8543c" x="58.195341" y="316.5405" style="fill: #4c78a8; stroke: #ffffff; stroke-width: 1.1"/>
     <use xlink:href="#mbb2ef8543c" x="59.204292" y="314.278686" style="fill: #4c78a8; stroke: #ffffff; stroke-width: 1.1"/>
     <use xlink:href="#mbb2ef8543c" x="73.408561" y="312.162343" style="fill: #4c78a8; stroke: #ffffff; stroke-width: 1.1"/>
     <use xlink:href="#mbb2ef8543c" x="60.97545" y="313.483592" style="fill: #4c78a8; stroke: #ffffff; stroke-width: 1.1"/>
     <use xlink:href="#mbb2ef8543c" x="60.128212" y="312.525028" style="fill: #4c78a8; stroke: #ffffff; stroke-width: 1.1"/>
    </g>
   </g>
   <g id="PathCollection_2">
    <defs>
     <path id="m9cf8d75d51" d="M 0 4.873397 
C 1.29244 4.873397 2.532119 4.359905 3.446012 3.446012 
C 4.359905 2.532119 4.873397 1.29244 4.873397 0 
C 4.873397 -1.29244 4.359905 -2.532119 3.446012 -3.446012 
C 2.532119 -4.359905 1.29244 -4.873397 0 -4.873397 
C -1.29244 -4.873397 -2.532119 -4.359905 -3.446012 -3.446012 
C -4.359905 -2.532119 -4.873397 -1.29244 -4.873397 0 
C -4.873397 1.29244 -4.359905 2.532119 -3.446012 3.446012 
C -2.532119 4.359905 -1.29244 4.873397 0 4.873397 
z
" style="stroke: #ffffff; stroke-width: 1.1"/>
    </defs>
    <g clip-path="url(#p69c48d797d)">
     <use xlink:href="#m9cf8d75d51" x="82.091071" y="305.376289" style="fill: #59a14f; stroke: #ffffff; stroke-width: 1.1"/>
     <use xlink:href="#m9cf8d75d51" x="81.100927" y="310.84247" style="fill: #59a14f; stroke: #ffffff; stroke-width: 1.1"/>
     <use xlink:href="#m9cf8d75d51" x="104.063819" y="308.097709" style="fill: #59a14f; stroke: #ffffff; stroke-width: 1.1"/>
     <use xlink:href="#m9cf8d75d51" x="89.175751" y="307.829919" style="fill: #59a14f; stroke: #ffffff; stroke-width: 1.1"/>
     <use xlink:href="#m9cf8d75d51" x="62.402011" y="310.808073" style="fill: #59a14f; stroke: #ffffff; stroke-width: 1.1"/>
    </g>
   </g>
   <g id="PathCollection_3">
    <defs>
     <path id="m13ddb9ced3" d="M 0 4.873397 
C 1.29244 4.873397 2.532119 4.359905 3.446012 3.446012 
C 4.359905 2.532119 4.873397 1.29244 4.873397 0 
C 4.873397 -1.29244 4.359905 -2.532119 3.446012 -3.446012 
C 2.532119 -4.359905 1.29244 -4.873397 0 -4.873397 
C -1.29244 -4.873397 -2.532119 -4.359905 -3.446012 -3.446012 
C -4.359905 -2.532119 -4.873397 -1.29244 -4.873397 0 
C -4.873397 1.29244 -4.359905 2.532119 -3.446012 3.446012 
C -2.532119 4.359905 -1.29244 4.873397 0 4.873397 
z
" style="stroke: #ffffff; stroke-width: 1.1"/>
    </defs>
    <g clip-path="url(#p69c48d797d)">
     <use xlink:href="#m13ddb9ced3" x="478.487966" y="169.243539" style="fill: #e15759; stroke: #ffffff; stroke-width: 1.1"/>
     <use xlink:href="#m13ddb9ced3" x="184.079147" y="202.331594" style="fill: #e15759; stroke: #ffffff; stroke-width: 1.1"/>
     <use xlink:href="#m13ddb9ced3" x="394.359824" y="242.282594" style="fill: #e15759; stroke: #ffffff; stroke-width: 1.1"/>
     <use xlink:href="#m13ddb9ced3" x="287.679429" y="224.793265" style="fill: #e15759; stroke: #ffffff; stroke-width: 1.1"/>
     <use xlink:href="#m13ddb9ced3" x="312.163156" y="146.425018" style="fill: #e15759; stroke: #ffffff; stroke-width: 1.1"/>
    </g>
   </g>
   <g id="PathCollection_4">
    <defs>
     <path id="mf9bc52a52c" d="M 0 4.873397 
C 1.29244 4.873397 2.532119 4.359905 3.446012 3.446012 
C 4.359905 2.532119 4.873397 1.29244 4.873397 0 
C 4.873397 -1.29244 4.359905 -2.532119 3.446012 -3.446012 
C 2.532119 -4.359905 1.29244 -4.873397 0 -4.873397 
C -1.29244 -4.873397 -2.532119 -4.359905 -3.446012 -3.446012 
C -4.359905 -2.532119 -4.873397 -1.29244 -4.873397 0 
C -4.873397 1.29244 -4.359905 2.532119 -3.446012 3.446012 
C -2.532119 4.359905 -1.29244 4.873397 0 4.873397 
z
" style="stroke: #ffffff; stroke-width: 1.1"/>
    </defs>
    <g clip-path="url(#p69c48d797d)">
     <use xlink:href="#mf9bc52a52c" x="489.377159" y="34.603559" style="fill: #b07aa1; stroke: #ffffff; stroke-width: 1.1"/>
     <use xlink:href="#mf9bc52a52c" x="185.875233" y="46.301883" style="fill: #b07aa1; stroke: #ffffff; stroke-width: 1.1"/>
     <use xlink:href="#mf9bc52a52c" x="444.801658" y="106.638039" style="fill: #b07aa1; stroke: #ffffff; stroke-width: 1.1"/>
     <use xlink:href="#mf9bc52a52c" x="316.540674" y="100.437194" style="fill: #b07aa1; stroke: #ffffff; stroke-width: 1.1"/>
     <use xlink:href="#mf9bc52a52c" x="311.89565" y="34.3005" style="fill: #b07aa1; stroke: #ffffff; stroke-width: 1.1"/>
    </g>
   </g>
   <g id="PathCollection_5">
    <defs>
     <path id="md518e1e8e4" d="M 0 4.873397 
C 1.29244 4.873397 2.532119 4.359905 3.446012 3.446012 
C 4.359905 2.532119 4.873397 1.29244 4.873397 0 
C 4.873397 -1.29244 4.359905 -2.532119 3.446012 -3.446012 
C 2.532119 -4.359905 1.29244 -4.873397 0 -4.873397 
C -1.29244 -4.873397 -2.532119 -4.359905 -3.446012 -3.446012 
C -4.359905 -2.532119 -4.873397 -1.29244 -4.873397 0 
C -4.873397 1.29244 -4.359905 2.532119 -3.446012 3.446012 
C -2.532119 4.359905 -1.29244 4.873397 0 4.873397 
z
" style="stroke: #ffffff; stroke-width: 1.1"/>
    </defs>
    <g clip-path="url(#p69c48d797d)">
     <use xlink:href="#md518e1e8e4" x="65.757281" y="312.839855" style="fill: #f28e2b; stroke: #ffffff; stroke-width: 1.1"/>
     <use xlink:href="#md518e1e8e4" x="68.848494" y="313.239563" style="fill: #f28e2b; stroke: #ffffff; stroke-width: 1.1"/>
     <use xlink:href="#md518e1e8e4" x="119.391448" y="307.377782" style="fill: #f28e2b; stroke: #ffffff; stroke-width: 1.1"/>
     <use xlink:href="#md518e1e8e4" x="77.168591" y="310.707503" style="fill: #f28e2b; stroke: #ffffff; stroke-width: 1.1"/>
     <use xlink:href="#md518e1e8e4" x="64.89873" y="308.880846" style="fill: #f28e2b; stroke: #ffffff; stroke-width: 1.1"/>
    </g>
   </g>
   <g id="matplotlib.axis_1">
    <g id="xtick_1">
     <g id="line2d_1">
      <path d="M 59.102774 330.6525 
L 59.102774 20.1885 
" clip-path="url(#p69c48d797d)" style="fill: none; stroke: #e6e6e6; stroke-width: 0.6; stroke-linecap: square"/>
     </g>
     <g id="line2d_2">
      <defs>
       <path id="m53b190df14" d="M 0 0 
L 0 3.5 
" style="stroke: #000000; stroke-width: 0.8"/>
      </defs>
      <g>
       <use xlink:href="#m53b190df14" x="59.102774" y="330.6525" style="stroke: #000000; stroke-width: 0.8"/>
      </g>
     </g>
     <g id="text_1">
      <text style="font-size: 8px; font-family: 'Arial', 'Helvetica', 'DejaVu Sans', sans-serif; text-anchor: middle" x="59.102774" y="343.37875" transform="rotate(-0 59.102774 343.37875)">0.000</text>
     </g>
    </g>
    <g id="xtick_2">
     <g id="line2d_3">
      <path d="M 115.817324 330.6525 
L 115.817324 20.1885 
" clip-path="url(#p69c48d797d)" style="fill: none; stroke: #e6e6e6; stroke-width: 0.6; stroke-linecap: square"/>
     </g>
     <g id="line2d_4">
      <g>
       <use xlink:href="#m53b190df14" x="115.817324" y="330.6525" style="stroke: #000000; stroke-width: 0.8"/>
      </g>
     </g>
     <g id="text_2">
      <text style="font-size: 8px; font-family: 'Arial', 'Helvetica', 'DejaVu Sans', sans-serif; text-anchor: middle" x="115.817324" y="343.37875" transform="rotate(-0 115.817324 343.37875)">0.025</text>
     </g>
    </g>
    <g id="xtick_3">
     <g id="line2d_5">
      <path d="M 172.531874 330.6525 
L 172.531874 20.1885 
" clip-path="url(#p69c48d797d)" style="fill: none; stroke: #e6e6e6; stroke-width: 0.6; stroke-linecap: square"/>
     </g>
     <g id="line2d_6">
      <g>
       <use xlink:href="#m53b190df14" x="172.531874" y="330.6525" style="stroke: #000000; stroke-width: 0.8"/>
      </g>
     </g>
     <g id="text_3">
      <text style="font-size: 8px; font-family: 'Arial', 'Helvetica', 'DejaVu Sans', sans-serif; text-anchor: middle" x="172.531874" y="343.37875" transform="rotate(-0 172.531874 343.37875)">0.050</text>
     </g>
    </g>
    <g id="xtick_4">
     <g id="line2d_7">
      <path d="M 229.246423 330.6525 
L 229.246423 20.1885 
" clip-path="url(#p69c48d797d)" style="fill: none; stroke: #e6e6e6; stroke-width: 0.6; stroke-linecap: square"/>
     </g>
     <g id="line2d_8">
      <g>
       <use xlink:href="#m53b190df14" x="229.246423" y="330.6525" style="stroke: #000000; stroke-width: 0.8"/>
      </g>
     </g>
     <g id="text_4">
      <text style="font-size: 8px; font-family: 'Arial', 'Helvetica', 'DejaVu Sans', sans-serif; text-anchor: middle" x="229.246423" y="343.37875" transform="rotate(-0 229.246423 343.37875)">0.075</text>
     </g>
    </g>
    <g id="xtick_5">
     <g id="line2d_9">
      <path d="M 285.960973 330.6525 
L 285.960973 20.1885 
" clip-path="url(#p69c48d797d)" style="fill: none; stroke: #e6e6e6; stroke-width: 0.6; stroke-linecap: square"/>
     </g>
     <g id="line2d_10">
      <g>
       <use xlink:href="#m53b190df14" x="285.960973" y="330.6525" style="stroke: #000000; stroke-width: 0.8"/>
      </g>
     </g>
     <g id="text_5">
      <text style="font-size: 8px; font-family: 'Arial', 'Helvetica', 'DejaVu Sans', sans-serif; text-anchor: middle" x="285.960973" y="343.37875" transform="rotate(-0 285.960973 343.37875)">0.100</text>
     </g>
    </g>
    <g id="xtick_6">
     <g id="line2d_11">
      <path d="M 342.675523 330.6525 
L 342.675523 20.1885 
" clip-path="url(#p69c48d797d)" style="fill: none; stroke: #e6e6e6; stroke-width: 0.6; stroke-linecap: square"/>
     </g>
     <g id="line2d_12">
      <g>
       <use xlink:href="#m53b190df14" x="342.675523" y="330.6525" style="stroke: #000000; stroke-width: 0.8"/>
      </g>
     </g>
     <g id="text_6">
      <text style="font-size: 8px; font-family: 'Arial', 'Helvetica', 'DejaVu Sans', sans-serif; text-anchor: middle" x="342.675523" y="343.37875" transform="rotate(-0 342.675523 343.37875)">0.125</text>
     </g>
    </g>
    <g id="xtick_7">
     <g id="line2d_13">
      <path d="M 399.390073 330.6525 
L 399.390073 20.1885 
" clip-path="url(#p69c48d797d)" style="fill: none; stroke: #e6e6e6; stroke-width: 0.6; stroke-linecap: square"/>
     </g>
     <g id="line2d_14">
      <g>
       <use xlink:href="#m53b190df14" x="399.390073" y="330.6525" style="stroke: #000000; stroke-width: 0.8"/>
      </g>
     </g>
     <g id="text_7">
      <text style="font-size: 8px; font-family: 'Arial', 'Helvetica', 'DejaVu Sans', sans-serif; text-anchor: middle" x="399.390073" y="343.37875" transform="rotate(-0 399.390073 343.37875)">0.150</text>
     </g>
    </g>
    <g id="xtick_8">
     <g id="line2d_15">
      <path d="M 456.104623 330.6525 
L 456.104623 20.1885 
" clip-path="url(#p69c48d797d)" style="fill: none; stroke: #e6e6e6; stroke-width: 0.6; stroke-linecap: square"/>
     </g>
     <g id="line2d_16">
      <g>
       <use xlink:href="#m53b190df14" x="456.104623" y="330.6525" style="stroke: #000000; stroke-width: 0.8"/>
      </g>
     </g>
     <g id="text_8">
      <text style="font-size: 8px; font-family: 'Arial', 'Helvetica', 'DejaVu Sans', sans-serif; text-anchor: middle" x="456.104623" y="343.37875" transform="rotate(-0 456.104623 343.37875)">0.175</text>
     </g>
    </g>
    <g id="text_9">
     <text style="font-size: 8px; font-family: 'Arial', 'Helvetica', 'DejaVu Sans', sans-serif; text-anchor: middle" x="273.78625" y="354.695" transform="rotate(-0 273.78625 354.695)">Train minus non-member accuracy</text>
    </g>
   </g>
   <g id="matplotlib.axis_2">
    <g id="ytick_1">
     <g id="line2d_17">
      <path d="M 36.63625 314.678126 
L 510.93625 314.678126 
" clip-path="url(#p69c48d797d)" style="fill: none; stroke: #e6e6e6; stroke-width: 0.6; stroke-linecap: square"/>
     </g>
     <g id="line2d_18">
      <defs>
       <path id="m38f541812f" d="M 0 0 
L -3.5 0 
" style="stroke: #000000; stroke-width: 0.8"/>
      </defs>
      <g>
       <use xlink:href="#m38f541812f" x="36.63625" y="314.678126" style="stroke: #000000; stroke-width: 0.8"/>
      </g>
     </g>
     <g id="text_10">
      <text style="font-size: 8px; font-family: 'Arial', 'Helvetica', 'DejaVu Sans', sans-serif; text-anchor: end" x="29.63625" y="317.541251" transform="rotate(-0 29.63625 317.541251)">0.5</text>
     </g>
    </g>
    <g id="ytick_2">
     <g id="line2d_19">
      <path d="M 36.63625 258.400198 
L 510.93625 258.400198 
" clip-path="url(#p69c48d797d)" style="fill: none; stroke: #e6e6e6; stroke-width: 0.6; stroke-linecap: square"/>
     </g>
     <g id="line2d_20">
      <g>
       <use xlink:href="#m38f541812f" x="36.63625" y="258.400198" style="stroke: #000000; stroke-width: 0.8"/>
      </g>
     </g>
     <g id="text_11">
      <text style="font-size: 8px; font-family: 'Arial', 'Helvetica', 'DejaVu Sans', sans-serif; text-anchor: end" x="29.63625" y="261.263323" transform="rotate(-0 29.63625 261.263323)">0.6</text>
     </g>
    </g>
    <g id="ytick_3">
     <g id="line2d_21">
      <path d="M 36.63625 202.12227 
L 510.93625 202.12227 
" clip-path="url(#p69c48d797d)" style="fill: none; stroke: #e6e6e6; stroke-width: 0.6; stroke-linecap: square"/>
     </g>
     <g id="line2d_22">
      <g>
       <use xlink:href="#m38f541812f" x="36.63625" y="202.12227" style="stroke: #000000; stroke-width: 0.8"/>
      </g>
     </g>
     <g id="text_12">
      <text style="font-size: 8px; font-family: 'Arial', 'Helvetica', 'DejaVu Sans', sans-serif; text-anchor: end" x="29.63625" y="204.985395" transform="rotate(-0 29.63625 204.985395)">0.7</text>
     </g>
    </g>
    <g id="ytick_4">
     <g id="line2d_23">
      <path d="M 36.63625 145.844342 
L 510.93625 145.844342 
" clip-path="url(#p69c48d797d)" style="fill: none; stroke: #e6e6e6; stroke-width: 0.6; stroke-linecap: square"/>
     </g>
     <g id="line2d_24">
      <g>
       <use xlink:href="#m38f541812f" x="36.63625" y="145.844342" style="stroke: #000000; stroke-width: 0.8"/>
      </g>
     </g>
     <g id="text_13">
      <text style="font-size: 8px; font-family: 'Arial', 'Helvetica', 'DejaVu Sans', sans-serif; text-anchor: end" x="29.63625" y="148.707467" transform="rotate(-0 29.63625 148.707467)">0.8</text>
     </g>
    </g>
    <g id="ytick_5">
     <g id="line2d_25">
      <path d="M 36.63625 89.566414 
L 510.93625 89.566414 
" clip-path="url(#p69c48d797d)" style="fill: none; stroke: #e6e6e6; stroke-width: 0.6; stroke-linecap: square"/>
     </g>
     <g id="line2d_26">
      <g>
       <use xlink:href="#m38f541812f" x="36.63625" y="89.566414" style="stroke: #000000; stroke-width: 0.8"/>
      </g>
     </g>
     <g id="text_14">
      <text style="font-size: 8px; font-family: 'Arial', 'Helvetica', 'DejaVu Sans', sans-serif; text-anchor: end" x="29.63625" y="92.429539" transform="rotate(-0 29.63625 92.429539)">0.9</text>
     </g>
    </g>
    <g id="ytick_6">
     <g id="line2d_27">
      <path d="M 36.63625 33.288486 
L 510.93625 33.288486 
" clip-path="url(#p69c48d797d)" style="fill: none; stroke: #e6e6e6; stroke-width: 0.6; stroke-linecap: square"/>
     </g>
     <g id="line2d_28">
      <g>
       <use xlink:href="#m38f541812f" x="36.63625" y="33.288486" style="stroke: #000000; stroke-width: 0.8"/>
      </g>
     </g>
     <g id="text_15">
      <text style="font-size: 8px; font-family: 'Arial', 'Helvetica', 'DejaVu Sans', sans-serif; text-anchor: end" x="29.63625" y="36.151611" transform="rotate(-0 29.63625 36.151611)">1.0</text>
     </g>
    </g>
    <g id="text_16">
     <text style="font-size: 8px; font-family: 'Arial', 'Helvetica', 'DejaVu Sans', sans-serif; text-anchor: middle" x="12.92625" y="175.4205" transform="rotate(-90 12.92625 175.4205)">Best attack AUC</text>
    </g>
   </g>
   <g id="line2d_29">
    <path d="M 36.63625 314.678126 
L 510.93625 314.678126 
" clip-path="url(#p69c48d797d)" style="fill: none; stroke-dasharray: 3.7,1.6; stroke-dashoffset: 0; stroke: #333333"/>
   </g>
   <g id="patch_3">
    <path d="M 36.63625 330.6525 
L 36.63625 20.1885 
" style="fill: none; stroke: #000000; stroke-width: 0.8; stroke-linejoin: miter; stroke-linecap: square"/>
   </g>
   <g id="patch_4">
    <path d="M 36.63625 330.6525 
L 510.93625 330.6525 
" style="fill: none; stroke: #000000; stroke-width: 0.8; stroke-linejoin: miter; stroke-linecap: square"/>
   </g>
   <g id="text_17">
    <text style="font-size: 9.6px; font-family: 'Arial', 'Helvetica', 'DejaVu Sans', sans-serif; text-anchor: middle" x="273.78625" y="14.1885" transform="rotate(-0 273.78625 14.1885)">Train/non-member accuracy gap and best MIA AUC</text>
   </g>
   <g id="legend_1">
    <g id="PathCollection_6">
     <g>
      <use xlink:href="#mbb2ef8543c" x="535.62225" y="152.70925" style="fill: #4c78a8; stroke: #ffffff; stroke-width: 1.1"/>
     </g>
    </g>
    <g id="text_18">
     <text style="font-size: 8px; font-family: 'Arial', 'Helvetica', 'DejaVu Sans', sans-serif; text-anchor: start" x="550.02225" y="154.80925" transform="rotate(-0 550.02225 154.80925)">Logistic</text>
    </g>
    <g id="PathCollection_7">
     <g>
      <use xlink:href="#m9cf8d75d51" x="535.62225" y="164.11925" style="fill: #59a14f; stroke: #ffffff; stroke-width: 1.1"/>
     </g>
    </g>
    <g id="text_19">
     <text style="font-size: 8px; font-family: 'Arial', 'Helvetica', 'DejaVu Sans', sans-serif; text-anchor: start" x="550.02225" y="166.21925" transform="rotate(-0 550.02225 166.21925)">HistGB</text>
    </g>
    <g id="PathCollection_8">
     <g>
      <use xlink:href="#m13ddb9ced3" x="535.62225" y="175.4355" style="fill: #e15759; stroke: #ffffff; stroke-width: 1.1"/>
     </g>
    </g>
    <g id="text_20">
     <text style="font-size: 8px; font-family: 'Arial', 'Helvetica', 'DejaVu Sans', sans-serif; text-anchor: start" x="550.02225" y="177.5355" transform="rotate(-0 550.02225 177.5355)">Random Forest</text>
    </g>
    <g id="PathCollection_9">
     <g>
      <use xlink:href="#mf9bc52a52c" x="535.62225" y="186.75175" style="fill: #b07aa1; stroke: #ffffff; stroke-width: 1.1"/>
     </g>
    </g>
    <g id="text_21">
     <text style="font-size: 8px; font-family: 'Arial', 'Helvetica', 'DejaVu Sans', sans-serif; text-anchor: start" x="550.02225" y="188.85175" transform="rotate(-0 550.02225 188.85175)">ExtraTrees</text>
    </g>
    <g id="PathCollection_10">
     <g>
      <use xlink:href="#md518e1e8e4" x="535.62225" y="198.068" style="fill: #f28e2b; stroke: #ffffff; stroke-width: 1.1"/>
     </g>
    </g>
    <g id="text_22">
     <text style="font-size: 8px; font-family: 'Arial', 'Helvetica', 'DejaVu Sans', sans-serif; text-anchor: start" x="550.02225" y="200.168" transform="rotate(-0 550.02225 200.168)">Small MLP</text>
    </g>
   </g>
  </g>
 </g>
 <defs>
  <clipPath id="p69c48d797d">
   <rect x="36.63625" y="20.1885" width="474.3" height="310.464"/>
  </clipPath>
 </defs>
</svg>
